<?xml version="1.0" encoding="utf-8" ?>
<svg baseProfile="full" height="200" version="1.1" width="200" xmlns="http://www.w3.org/2000/svg" xmlns:ev="http://www.w3.org/2001/xml-events" xmlns:xlink="http://www.w3.org/1999/xlink"><defs /><rect fill="blue" height="20" width="20" x="40" y="20" /><rect fill="blue" height="20" width="20" x="60" y="20" /><rect fill="blue" height="20" width="20" x="80" y="20" /><rect fill="blue" height="20" width="20" x="100" y="20" /><rect fill="blue" height="20" width="20" x="120" y="20" /><rect fill="blue" height="20" width="20" x="140" y="20" /><rect fill="blue" height="20" width="20" x="20" y="40" /><rect fill="blue" height="20" width="20" x="40" y="40" /><rect fill="blue" height="20" width="20" x="140" y="40" /><rect fill="blue" height="20" width="20" x="160" y="40" /><rect fill="blue" height="20" width="20" x="20" y="60" /><rect fill="blue" height="20" width="20" x="160" y="60" /><rect fill="blue" height="20" width="20" x="20" y="80" /><rect fill="blue" height="20" width="20" x="160" y="80" /><rect fill="blue" height="20" width="20" x="20" y="100" /><rect fill="blue" height="20" width="20" x="160" y="100" /><rect fill="blue" height="20" width="20" x="20" y="120" /><rect fill="blue" height="20" width="20" x="160" y="120" /><rect fill="blue" height="20" width="20" x="20" y="140" /><rect fill="blue" height="20" width="20" x="40" y="140" /><rect fill="blue" height="20" width="20" x="140" y="140" /><rect fill="blue" height="20" width="20" x="160" y="140" /><rect fill="blue" height="20" width="20" x="40" y="160" /><rect fill="blue" height="20" width="20" x="60" y="160" /><rect fill="blue" height="20" width="20" x="80" y="160" /><rect fill="blue" height="20" width="20" x="100" y="160" /><rect fill="blue" height="20" width="20" x="120" y="160" /><rect fill="blue" height="20" width="20" x="140" y="160" /></svg>